/* XPM */
static char * audio_volume_medium_xpm[] = {
"28 28 2 1",
" 	c None",
".	c #565656",
"                            ",
"                            ",
"                            ",
"                            ",
"                            ",
"                            ",
"             .              ",
"            ..              ",
"           ...              ",
"          ....              ",
"         .....              ",
"      ........  .           ",
"      ........  ..          ",
"      ........  ..          ",
"      ........  ..          ",
"      ........  ..          ",
"      ........  .           ",
"      ........              ",
"          ....              ",
"           ...              ",
"            ..              ",
"             .              ",
"                            ",
"                            ",
"                            ",
"                            ",
"                            ",
"                            "};
