#define volume_width 22
#define volume_height 22
static char volume_bits[] = {
  0xFF, 0xFF, 0x3F, 0xFF, 0xFF, 0x3F, 0xFF, 0xFF, 0x3F, 0xFF, 0xFF, 0x3F, 
  0xFF, 0xFF, 0x3F, 0xFF, 0xFB, 0x3F, 0xFF, 0xF9, 0x3F, 0xFF, 0xF8, 0x3F, 
  0x0F, 0xF8, 0x3F, 0x0F, 0xF8, 0x3F, 0x0F, 0xF8, 0x3F, 0x0F, 0xF8, 0x3F, 
  0x0F, 0xF8, 0x3F, 0x0F, 0xF8, 0x3F, 0xFF, 0xF8, 0x3F, 0xFF, 0xF9, 0x3F, 
  0xFF, 0xFB, 0x3F, 0xFF, 0xFF, 0x3F, 0xFF, 0xFF, 0x3F, 0xFF, 0xFF, 0x3F, 
  0xFF, 0xFF, 0x3F, 0xFF, 0xFF, 0x3F, };
