/* XPM */
static char * player_volume_xpm[] = {
"32 32 3 1",
" 	c None",
".	c #565656",
"+	c #575757",
"                                ",
"                                ",
"                                ",
"                                ",
"                                ",
"                                ",
"               .                ",
"              ..                ",
"             +..                ",
"            +...                ",
"           .....                ",
"          ......                ",
"      ..........                ",
"      ..........                ",
"      ..........                ",
"      ..........                ",
"      ..........                ",
"      ..........                ",
"      ..........                ",
"      ..........                ",
"          ......                ",
"           +....                ",
"            ....                ",
"             ...                ",
"              +.                ",
"               .                ",
"                                ",
"                                ",
"                                ",
"                                ",
"                                ",
"                                "};
